# xmcd CD database file
#
# Track frame offsets:
#	150
#	21967
#	40540
#	62422
#
# Disc length: 1076 seconds
#
# Revision: 0
# Processed by: cddbd v1.5.1PL2 Copyright (c) Steve Scherf et al.
# Submitted via: CDex 1.51
#
DISCID=25043204
DTITLE=鈴木紗理奈 - The Long Journey
DYEAR=1998
DGENRE=JPop
TTITLE0=The Long Journey
TTITLE1=クールにいこうよ 〜GIRL'S COOL〜
TTITLE2=The Long Journey(Original Karaoke)
TTITLE3=クールにいこうよ 〜GIRL'S COOL〜(Original Karaoke)
EXTD=YEAR: 1998
EXTT0=
EXTT1=
EXTT2=
EXTT3=
PLAYORDER=
